name Walk1.mot
datacolumns 19
datarows 12
range 1.07500000 1.13000000
endheader

                time	   L_ground_force_vx	   L_ground_force_vy	   L_ground_force_vz	   L_ground_force_px	   L_ground_force_py	   L_ground_force_pz	   R_ground_force_vx	   R_ground_force_vy	   R_ground_force_vz	   R_ground_force_px	   R_ground_force_py	   R_ground_force_pz	   L_ground_torque_x	   L_ground_torque_y	   L_ground_torque_z	   R_ground_torque_x	   R_ground_torque_y	   R_ground_torque_z	
          1.07500000	          0.00000000	          0.00000000	          0.00000000	          0.00000000	          0.00000000	          0.00000000	         -0.02747819	         -7.55189542	         -0.58480249	          0.00006930	          0.00000000	         -0.00000028	          0.00000000	          0.00000000	          0.00000000	          0.00000000	         -0.00081390	          0.00000000	
          1.08000000	          0.00000000	          0.00000000	         -0.00000000	          0.00000000	          0.00000000	          0.00000000	         -9.21352975	         49.14459260	         -0.19177374	         -0.15598518	          0.00000000	          0.23398911	          0.00000000	         -0.00000000	          0.00000000	          0.00000000	         -0.20434483	          0.00000000	
          1.08500000	          0.00000000	          0.00000000	         -0.00000000	         -0.00000000	          0.00000000	         -0.00000000	        -18.28517659	        177.26942321	          5.15043790	         -0.23647326	          0.00000000	          0.35002948	          0.00000000	         -0.00000000	          0.00000000	          0.00000000	         -0.28765674	          0.00000000	
          1.09000000	         -0.00000000	         -0.00000000	         -0.00000000	         -0.00000000	          0.00000000	         -0.00000000	        -18.22203508	        309.10459343	         17.57410637	         -0.24588139	          0.00000000	          0.36138580	          0.00000000	         -0.00000000	          0.00000000	          0.00000000	         -0.31591394	          0.00000000	
          1.09500000	         -0.00000000	         -0.00000000	          0.00000000	         -0.00000000	          0.00000000	         -0.00000000	        -15.10607209	        361.47963406	         31.23930638	         -0.23777365	          0.00000000	          0.35182453	          0.00000000	          0.00000000	          0.00000000	          0.00000000	         -0.45149378	          0.00000000	
          1.10000000	          0.00000000	         -0.00000000	          0.00000000	          0.00000000	          0.00000000	          0.00000000	        -20.38384135	        385.53198786	         38.46808007	         -0.22889901	          0.00000000	          0.34833451	          0.00000000	          0.00000000	          0.00000000	          0.00000000	         -0.70535412	          0.00000000	
          1.10500000	          0.00000000	          0.00000000	         -0.00000000	          0.00000000	          0.00000000	          0.00000000	        -40.16238332	        450.04339711	         35.26219297	         -0.22017005	          0.00000000	          0.34935268	          0.00000000	          0.00000000	          0.00000000	          0.00000000	         -0.88190129	          0.00000000	
          1.11000000	          0.00000000	          0.00000000	         -0.00000000	          0.00000000	          0.00000000	         -0.00000000	        -74.88194164	        517.40579390	         25.40947156	         -0.21446522	          0.00000000	          0.35084189	          0.00000000	         -0.00000000	          0.00000000	          0.00000000	         -0.72262215	          0.00000000	
          1.11500000	         -0.00000000	         -0.00000000	         -0.00000000	         -0.00000000	          0.00000000	         -0.00000000	       -110.20261497	        536.79478001	         18.94295638	         -0.21048239	          0.00000000	          0.35163042	          0.00000000	         -0.00000000	          0.00000000	          0.00000000	         -0.20357534	          0.00000000	
          1.12000000	         -0.00000000	         -0.00000000	          0.00000000	         -0.00000000	          0.00000000	         -0.00000000	       -126.59474089	        534.12308210	         14.77631915	         -0.20531874	          0.00000000	          0.35195861	          0.00000000	         -0.00000000	          0.00000000	          0.00000000	          0.36237391	          0.00000000	
          1.12500000	         -0.00000000	         -0.00000000	          0.00000000	          0.00000000	          0.00000000	          0.00000000	       -124.00022585	        549.78696820	          6.34479332	         -0.20041260	          0.00000000	          0.35227535	          0.00000000	          0.00000000	          0.00000000	          0.00000000	          0.74128704	          0.00000000	
          1.13000000	          0.00000000	          0.00000000	          0.00000000	          0.00000000	          0.00000000	          0.00000000	       -120.52033480	        582.00537147	         -4.39703601	         -0.19724028	          0.00000000	          0.35276301	          0.00000000	          0.00000000	          0.00000000	          0.00000000	          0.81180040	          0.00000000	
